<svg width="90" height="90" fill="none" xmlns="http://www.w3.org/2000/svg"><path d="M42.194 0h5.275c1.37.34 2.782.446 4.154.792 12.778 3.215 21.473 15.488 20.321 28.26-.072.804-.58 1.801-.12 2.368.43.535 1.447.625 2.222.85 1.267.367 2.019 1.203 2.424 2.423.421 1.27.875 2.528 1.32 3.789 3.096 8.775 6.19 17.554 9.305 26.324.382 1.074.37 2.073-.32 2.978-.311.408-.319.718-.152 1.18a616.44 616.44 0 013.04 8.64c1.191 3.456-.885 6.358-4.53 6.36-6.651.003-13.302 0-19.95 0H57.45c-.308 0-.618-.079-.79.342-.86 2.114-2.553 3.38-4.567 4.232-4.45 1.881-8.973 1.917-13.491.28-2.13-.772-4.003-1.97-5.034-4.097-.285-.585-.58-.774-1.229-.772-9.226.026-18.456.02-27.682.016-2.13 0-3.759-1.167-4.462-3.164-.044-.128-.003-.302-.195-.343V78.35c.046-.028.123-.044.139-.085 1.126-3.181 2.25-6.36 3.363-9.546.07-.203.195-.418-.018-.648-1.06-1.151-.86-2.39-.377-3.748 3.387-9.508 6.79-19.01 10.035-28.567.741-2.186 1.93-3.496 4.146-3.935.087-.018.172-.043.257-.051.718-.082.857-.485.739-1.146-.55-3.035-.483-6.093.249-9.059 2.704-11.002 9.5-18.064 20.56-20.892C40.11.408 41.157.22 42.193 0zm11.83 4.865c-.089-.138-.21-.14-.346-.077l.172.234c1.845 2.543 3.295 5.285 4.17 8.316.12.412.277.5.734.412a41.083 41.083 0 005.244-1.361c-2.717-3.379-5.935-5.988-9.973-7.524zm-18.037-.002c-4.03 1.546-7.266 4.132-9.965 7.526 1.78.572 3.49 1.023 5.237 1.359.454.087.616 0 .734-.41.872-3.03 2.324-5.773 4.169-8.316.049-.075.2-.139.087-.239-.08-.071-.205-.043-.262.08zM5.752 66.003c.326-.095.54-.154.75-.22 6.335-1.974 12.757-3.14 19.423-2.192 5.685.807 10.68 3.045 14.845 7.049.916.88 1.745 1.838 2.694 3.007V72.57c0-4.478 0-8.956.003-13.435 0-.292-.01-.59.043-.874.154-.807.773-1.333 1.514-1.325.736.008 1.365.554 1.504 1.346.051.284.033.582.033.874.003 4.506 0 9.015.008 13.522 0 .264-.113.564.123.83 1.257-1.607 2.622-3.047 4.164-4.316 5.052-4.156 10.971-5.812 17.391-5.911 5.216-.08 10.273.933 15.238 2.468.228.072.452.277.719.062-3.415-9.69-6.859-19.36-10.205-29.062-.42-1.223-1.11-1.74-2.25-2.04-.59-.154-.82-.12-1.044.5-3.81 10.671-11.294 17.015-22.553 18.536-7.79 1.05-14.743-1.236-20.737-6.304-3.882-3.284-6.56-7.4-8.138-12.238-.072-.215.005-.556-.342-.646-.561-.146-2.388.836-2.586 1.392-2.394 6.773-4.788 13.545-7.176 20.32-1.13 3.2-2.25 6.404-3.42 9.734zm34.805 8.918c-3.148-3.858-6.943-6.342-11.51-7.637-4.919-1.397-9.88-1.207-14.858-.343-.454.08-.598.356-.732.746-.72 2.09-1.472 4.168-2.209 6.252-.346.98-.34.982.665.982h28.644zm9.026-.118c.11.059.157.105.206.105 9.583.005 19.164.005 28.747.023.6 0 .505-.272.374-.638-.8-2.246-1.616-4.489-2.386-6.747-.156-.459-.441-.551-.834-.62a41.98 41.98 0 00-5.485-.62c-5.276-.229-10.302.66-14.877 3.437-2.206 1.34-4.143 2.997-5.745 5.06zM21.056 26.957c-.034 4.05.97 7.839 2.86 11.41.267.502.521.607 1.065.397a28.288 28.288 0 015.389-1.459c.67-.115.651-.405.554-.866-.578-2.722-.857-5.48-.919-8.26-.08-3.547.164-7.067.906-10.543.136-.638.015-.881-.71-1.01a28.146 28.146 0 01-5.217-1.422c-.57-.218-.813-.077-1.078.425-1.88 3.545-2.868 7.308-2.85 11.328zm47.905-.305c.018-3.712-.972-7.475-2.853-11.02-.264-.498-.492-.639-1.072-.418a27.167 27.167 0 01-5.217 1.417c-.826.136-.823.449-.692 1.087.451 2.177.726 4.376.831 6.599.192 4.106-.023 8.18-.885 12.21-.108.504.02.666.575.766 1.803.328 3.584.79 5.306 1.427.605.223.867.17 1.18-.425 1.873-3.556 2.845-7.319 2.827-11.643zm-25.501.318c0-2.779-.008-5.558.008-8.334.002-.44-.041-.705-.593-.7-2.694.016-5.373-.238-8.044-.561-.605-.075-.805.143-.908.7-.341 1.894-.62 3.794-.77 5.716-.318 4.135.005 8.223.803 12.284.085.43.25.58.757.523 2.702-.303 5.409-.58 8.131-.57.503.003.629-.145.626-.635-.023-2.81-.01-5.616-.01-8.423zm13.514.072c.044-2.99-.305-5.94-.865-8.873-.12-.625-.297-.892-.995-.797-2.638.362-5.29.56-7.957.564-.441 0-.608.128-.605.6.015 5.645.013 11.287.002 16.931 0 .403.075.562.524.56 2.722-.014 5.431.245 8.13.563.658.077.788-.166.886-.68.554-2.93.921-5.877.88-8.868zM39.952 77.989c-.732 0-1.463.016-2.194-.005-.41-.013-.61.082-.7.546-.2 1.026-.419 2.061-.778 3.038-.46 1.25.003 2.135.88 2.943a6.16 6.16 0 001.514 1.03c3.21 1.533 6.558 1.723 9.988.956 1.67-.374 3.233-.987 4.462-2.248.67-.69 1.003-1.448.683-2.448a27.222 27.222 0 01-.824-3.207c-.105-.55-.351-.623-.82-.612-1.2.025-2.41.105-3.595-.02-1.022-.109-1.473.34-1.786 1.186-.313.846-.593 1.792-1.735 1.82-1.2.028-1.493-.948-1.819-1.823-.316-.846-.772-1.366-1.788-1.171-.48.09-.99.015-1.488.015zM80.01 67.887c-.013.213-.036.274-.018.32.847 2.418 1.699 4.832 2.55 7.247.588 1.666-.02 2.53-1.788 2.53-6.8.003-13.596 0-20.395 0-1.26 0-2.522.028-3.78-.013-.53-.017-.59.188-.474.61.154.562.364 1.118.433 1.69.072.582.344.687.868.684 2.958-.02 5.919-.01 8.88-.01 6.242 0 12.482.003 18.725-.003 1.66-.002 2.306-.84 1.785-2.325-1.077-3.073-2.175-6.142-3.255-9.215-.103-.292-.206-.5-.544-.595-.975-.274-1.938-.594-2.987-.92zm-69.848-.033c-1.214.374-2.201.694-3.202.976a.562.562 0 00-.416.392c-1.152 3.297-2.32 6.588-3.435 9.895-.272.803.208 1.533 1.031 1.728.364.087.754.095 1.132.097 8.644.006 17.29.003 25.934.003 2.092 0 2.053-.01 2.623-2.012.218-.764.151-.97-.714-.964-7.94.033-15.882.02-23.823.02-1.77 0-2.391-.866-1.811-2.512.864-2.47 1.734-4.937 2.681-7.623zM43.459 9.18c0-1.756-.013-3.512.008-5.266.005-.515-.075-.692-.631-.448-.755.33-1.468.712-2.1 1.235-2.93 2.42-4.443 5.712-5.68 9.18-.113.315-.084.484.303.523 2.535.238 5.07.436 7.615.538.49.02.493-.223.493-.582-.016-1.73-.008-3.455-.008-5.18zm3.1-.134c0 1.726.023 3.453-.013 5.178-.013.572.136.746.718.713 2.425-.138 4.847-.28 7.264-.523.513-.051.539-.187.382-.651-.826-2.445-1.901-4.763-3.469-6.826-1.126-1.482-2.448-2.736-4.215-3.461-.58-.238-.688-.105-.68.474.03 1.7.013 3.4.013 5.096zm-3.1 35.745c0-1.723-.01-3.448.008-5.17.005-.426-.072-.619-.575-.59-2.45.133-4.9.256-7.343.51-.498.051-.616.184-.434.715.74 2.125 1.647 4.165 2.917 6.024 1.147 1.679 2.492 3.166 4.396 4.032 1.031.47 1.031.472 1.031-.612v-4.91zm3.1.046c0 1.753.012 3.506-.008 5.257-.005.505.133.61.605.42 1.504-.6 2.71-1.594 3.739-2.811 1.852-2.187 3.037-4.73 3.997-7.406.246-.69-.054-.718-.557-.77-2.355-.243-4.715-.353-7.079-.494-.62-.038-.718.177-.708.72.029 1.695.01 3.39.01 5.084zm7.245 4.309c4.087-1.556 7.449-4.066 10.168-7.565-1.744-.62-3.412-1.005-5.09-1.348-.372-.077-.713-.151-.87.397-.875 3.084-2.355 5.873-4.208 8.516zm-17.588.005c-1.855-2.653-3.346-5.465-4.236-8.575-.1-.35-.293-.43-.644-.366-1.76.323-3.484.774-5.29 1.366 2.734 3.514 6.085 6.011 10.17 7.575z" fill="#fff"/></svg>