<svg width="98" height="97" fill="none" xmlns="http://www.w3.org/2000/svg"><path d="M94.356 84.172c-1.88-1.798-3.71-3.644-5.548-5.484-.854-.856-1.838-1.358-3.07-1.163-.364.058-.533-.118-.732-.313-.613-.597-1.186-1.236-1.832-1.793-.438-.378-.374-.642-.08-1.07 2.358-3.455 3.918-7.234 4.586-11.358 1.322-8.172-.485-15.612-5.42-22.29-.466-.628-.644-1.23-.644-1.988.017-9.463 0-18.927.023-28.39.005-1.92-.54-3.53-2.181-4.666-1.07-.74-2.287-.905-3.547-.85-.558.025-.923-.035-.838-.743.228-1.909-.565-3.269-2.338-4.064H44.407c-1.2.49-2.455.891-3.353 1.903-.153.17-.297.222-.466.033C39.654.913 38.4.45 37.135 0H8.808c-1.743.87-2.542 2.251-2.29 4.185.081.617-.257.647-.728.622-1.721-.082-3.298.264-4.509 1.594-.818.896-1.28 1.936-1.28 3.161 0 17.83-.003 35.659.002 53.49 0 2.593 2.051 4.73 4.69 4.743 8.452.044 16.904.036 25.354.014.731-.003 1.083.173 1.388.894 4.204 9.952 11.628 16.087 22.38 18.03 7.624 1.377 14.713-.221 21.184-4.43.582-.38.942-.429 1.377.136.288.373.648.697 1.006 1.01.63.55 1.092 1.085.967 2.062-.105.817.385 1.566.995 2.169 2.527 2.498 5.019 5.032 7.588 7.486 3.552 3.395 9.311 1.862 10.843-2.84.056-.168-.016-.393.225-.475v-2.652c-.624-2.1-2.117-3.565-3.644-5.026zM75.75 8.11c.313.038.637-.003.956.014.953.05 1.574.606 1.577 1.538.013 8.86.008 17.724.008 26.694-.998-.754-1.865-1.434-2.763-2.076-.352-.252-.46-.538-.457-.954.01-8.173.01-16.345-.003-24.517-.003-.52.116-.768.682-.699zM42.473 6.664c.005-2.046 1.316-3.423 3.358-3.425 8.42-.02 16.836-.003 25.255-.02.515 0 .706.105.706.661-.016 9.275-.014 18.55-.016 27.827 0 .082-.036.164-.061.271-10.04-4.426-19.745-3.84-29.245 1.862V16.031c.003-3.12-.003-6.244.003-9.367zM29.39 64.592c-1.785-.043-3.572-.016-5.36-.016H5.754c-2.06 0-2.494-.439-2.494-2.517V10.456c0-1.966 1.006-2.764 2.926-2.35.238.052.327.132.322.357-.006.252 0 .504 0 .757 0 16.127.03 32.255-.036 48.382-.009 2.128 1.471 3.834 3.83 3.79 6.121-.112 12.248-.025 18.373-.055.734-.003 1.025.176 1.022.924 0 .527.144 1.062.286 1.575.158.564.064.773-.593.756zm.457-11.718a28.051 28.051 0 00-.466 4.506c-.016.645-.246.757-.834.757-5.966-.02-11.93-.027-17.896.008-.749.006-.876-.225-.873-.902.022-8.869.013-17.737.013-26.606 0-8.775.012-17.548-.016-26.323-.003-.81.127-1.111 1.059-1.106 8.166.044 16.333.025 24.497.025 2.558 0 3.788 1.22 3.788 3.776.003 9.563-.002 19.125.014 28.69 0 .59-.185.963-.62 1.372-4.612 4.332-7.494 9.609-8.666 15.803zm28.776 31.03c-14.374-.028-25.952-11.562-25.93-25.836.022-14.251 11.625-25.717 26.039-25.722 14.496-.009 26.118 11.526 26.08 25.879C84.77 72.504 73.12 83.93 58.624 83.904zm21.153-2.707c-.382-.493-1.155-.864-1.238-1.368-.092-.56.809-.842 1.191-1.328.252-.315.546-.597.79-.858.26-.041.333.132.443.225 1.901 1.582 1.877 1.558.167 3.326-.532.552-.857.642-1.353.003zm14.827 8.981c-.028 1.574-.621 2.531-1.782 3.074-1.217.568-2.492.532-3.476-.395-2.51-2.369-4.932-4.832-7.404-7.245-.297-.288-.189-.447.047-.677a295.752 295.752 0 003.849-3.815c.305-.307.474-.266.757.017 2.375 2.375 4.772 4.728 7.147 7.102.61.606.906 1.358.862 1.94z" fill="#4d6fb7"/><path d="M33.948 29.005c-.094-.002-.19 0-.285 0H15.312c-.416 0-.826-.008-1.222.154-.69.285-1.067.8-1.059 1.53.008.727.388 1.24 1.084 1.514.365.142.742.148 1.127.148 3.06-.003 6.117-.003 9.176-.003h5.066c1.496 0 2.996.014 4.492-.005 1.167-.017 1.94-.678 1.968-1.632.027-.982-.782-1.673-1.996-1.706zm-.088-9.675c-3.12-.005-6.244-.002-9.364-.002-3.12 0-6.244-.003-9.364 0-1.325.003-2.11.625-2.11 1.659 0 1.031.768 1.662 2.115 1.664 6.244.011 12.487.011 18.731 0 1.294-.002 2.12-.72 2.078-1.716-.041-.985-.83-1.602-2.086-1.604zm-19.122-6.422c3.254.02 6.507.008 9.76.008v.003c3.19 0 6.38.008 9.57-.005 1.116-.006 1.859-.664 1.876-1.594.02-.951-.776-1.659-1.918-1.659-6.38-.005-12.759-.003-19.138 0-.222 0-.452.003-.662.063-.754.217-1.275.993-1.195 1.733.091.853.734 1.445 1.707 1.451zM29.08 38.705a1690.1 1690.1 0 00-14.062-.003c-1.266.006-2.015.683-1.995 1.687.02.995.8 1.629 2.045 1.631 2.328.006 4.656.003 6.984.003 2.327 0 4.655.006 6.983-.003 1.203-.005 1.937-.606 1.973-1.585.036-1.044-.662-1.724-1.929-1.73zm-4.84 9.732c-3.117-.013-6.235-.013-9.355 0-1.144.006-1.843.628-1.862 1.583-.02.97.745 1.662 1.887 1.67 1.527.01 3.054.003 4.58.003 1.561 0 3.119.005 4.679-.003 1.183-.006 1.937-.628 1.965-1.599.033-.96-.727-1.648-1.893-1.654zm23.518-25.783c6.251.011 12.5.006 18.752.003.48 0 .956-.055 1.364-.348.654-.472.826-1.15.587-1.849-.271-.8-.94-1.132-1.793-1.132-3.19.008-6.379.003-9.566.003-3.093 0-6.188-.003-9.28 0-1.375 0-2.11.567-2.13 1.623-.019 1.064.713 1.697 2.066 1.7zm-.314-9.74c6.44.013 12.878.005 19.319.008.775 0 1.371-.288 1.673-1.012.48-1.146-.36-2.24-1.74-2.246-3.187-.014-6.377-.006-9.563-.006-3.22 0-6.44-.008-9.658.006-1.109.005-1.793.672-1.78 1.662.014.951.663 1.585 1.75 1.588zm11.31 22.58c-12.596.01-22.796 10.094-22.846 22.588-.05 12.486 10.22 22.665 22.857 22.654 12.631-.01 22.788-10.05 22.835-22.572.047-12.494-10.218-22.678-22.846-22.67zm-.014 41.965c-10.794-.002-19.518-8.652-19.515-19.35.003-10.689 8.724-19.308 19.548-19.308 10.816 0 19.518 8.625 19.515 19.339-.003 10.698-8.732 19.325-19.548 19.32z" fill="#4d6fb7"/><path d="M58.554 41.966c-.255-.003-.507.019-.762.032-3.985.247-7.43 1.717-10.323 4.443-.923.87-1.034 1.804-.321 2.548.698.73 1.685.666 2.596-.187 1.403-1.313 3.013-2.295 4.842-2.896a12.85 12.85 0 014.015-.666c1.073-.003 1.83-.738 1.815-1.662-.013-.932-.781-1.599-1.862-1.612z" fill="#4d6fb7"/></svg>