<svg width="98" height="90" fill="none" xmlns="http://www.w3.org/2000/svg"><path fill-rule="evenodd" clip-rule="evenodd" d="M.294 68.907C.197 69.35.1 69.793 0 70.233c0 2.417 0 4.836.005 7.238.171.048.179.178.186.31.002.023.003.047.006.07.125 1.363.387 2.7.786 4.005 1.322 4.333 4.17 7.889 10.466 7.866 20.495-.075 40.989-.064 61.483-.052 7.482.004 14.964.008 22.446.008.076 0 .151 0 .228.002.177.001.356.003.535-.004 1.102-.039 1.63-.564 1.638-1.654.008-1.158.006-2.317.004-3.476v-1.488c0-1.629-.397-2.078-2.002-2.04-.712.016-.89-.165-.883-.883.038-4.106.046-8.21-.002-12.316-.01-.855.188-1.126 1.069-1.08 1.327.069 1.812-.485 1.814-1.838.002-.7 0-1.4 0-2.1 0-1.051-.001-2.102.003-3.152.005-.919-.47-1.414-1.35-1.534a5.736 5.736 0 00-.846-.034l-.203.001c-9.45 0-18.904 0-28.357-.005-.072 0-.145.004-.22.008-.258.015-.528.03-.796-.13l.081-.093c.057-.065.098-.112.143-.155 7.32-6.914 10.86-15.336 9.928-25.438-.37-4.004-1.944-7.595-4.668-10.62-.737-.819-1.567-.926-2.238-.329-.681.608-.668 1.404.072 2.259 1.023 1.184 1.883 2.468 2.511 3.905 1.92 4.39 2.098 8.897.944 13.5-1.27 5.08-3.501 9.648-7.233 13.38-2.085 2.085-4.502 3.675-7.59 3.698-4.77.038-9.54.027-14.31.016l-3.068-.006c-1.827-.003-3.476-.638-4.992-1.616-3.509-2.264-5.821-5.54-7.593-9.223-2.656-5.52-3.881-11.253-2.233-17.34 1.672-6.176 6.46-10.155 12.83-10.706 2.272-.197 4.474.202 6.683.603l.588.106c.342.062.68.133 1.016.204 1.33.282 2.643.56 4.112.194 4.737-1.181 9.524-2.008 14.251.215.779.365 1.567-.09 1.868-.853.289-.735-.028-1.482-.857-1.865-1.593-.733-3.264-1.18-5-1.432-1.202-.177-2.41-.168-3.618-.16-.26.002-.52.004-.78.004.004-.054.004-.092.004-.12 0-.04 0-.058.01-.069.068-.086.14-.172.21-.257.07-.086.142-.171.21-.258 3.285-4.194 4.34-8.872 3.033-14.055-.33-1.302-1.072-1.697-2.338-1.292-6.917 2.21-11.49 9.237-10.681 16.462.061.556-.135.6-.551.503-1.639-.378-3.295-.671-4.972-.812-6.715-.561-12.291 1.547-16.191 7.213-3.111 4.522-3.956 9.632-3.254 14.999.852 6.526 3.448 12.299 7.86 17.197 3.19 3.54 7.078 5.403 12.003 5.372 12.317-.078 24.634-.064 36.952-.051 4.71.005 9.42.01 14.13.01 1.56 0 1.56.005 1.639 1.444l.01.184c.054.973-.23 1.174-1.179 1.174-23.915-.024-47.83-.023-71.745-.023H10.969c-2.575 0-3.78.843-4.527 3.331-.967 3.213-.796 6.508-.625 9.796l.022.423c.062 1.172.26 2.328.646 3.448.779 2.261 2.001 3.142 4.397 3.142h82.212c.9 0 1.342 0 1.567.221.23.225.234.68.268 1.599.028.806-.197.977-.985.977-27.753-.023-55.508-.033-83.26-.002-3.089.005-5.092-1.391-6.304-4.14-.95-2.154-1.297-4.433-1.425-6.753-.209-3.803-.038-7.567 1.621-11.09 1.156-2.457 3.068-3.764 5.878-3.741 4.144.034 8.289.026 12.434.019 1.52-.003 3.04-.006 4.56-.006.07 0 .138.002.208.003.22.006.442.011.648-.039.765-.189 1.245-.704 1.21-1.493-.031-.725-.445-1.25-1.228-1.363a5.372 5.372 0 00-.758-.056l-8.497-.001c-2.832 0-5.665 0-8.498-.002-2.476 0-4.694.674-6.498 2.453-1.557 1.534-2.514 3.41-3.07 5.495a62.97 62.97 0 00-.671 2.862zm42.648-2.126l8.023-.001h6.668c11.113.001 22.225.002 33.337-.023.822-.003 1.144.135 1.098 1.051l-.009.176c-.073 1.565-.073 1.568-1.717 1.568h-.226c-25.321 0-50.645 0-75.967.002h-.137a8.33 8.33 0 00-1.1.046c-.797.107-1.259.559-1.28 1.391-.02.794.486 1.386 1.3 1.496.229.031.462.026.695.021.087-.002.173-.004.26-.004h10.261c22.265.001 44.53.002 66.792-.023.906-.002 1.181.182 1.133 1.118l-.01.18c-.077 1.5-.077 1.502-1.682 1.502-14.481 0-28.963 0-43.444.003h-.127a7.001 7.001 0 00-1.016.046c-.799.117-1.25.597-1.286 1.406-.034.76.525 1.378 1.33 1.483.226.03.457.024.688.02.088-.003.177-.005.266-.005l8.842.001c11.788.002 23.575.003 35.364-.021.873-.003 1.105.22 1.07 1.08l-.006.143c-.064 1.574-.064 1.576-1.743 1.576H11.166c-1.519 0-1.66-.068-2.011-1.533-.618-2.558-.633-5.163-.47-7.772v-.002c.08-1.265.159-2.533.536-3.76.253-.816.679-1.194 1.641-1.192 10.694.031 21.387.029 32.08.027zm7.19-51.442l-.027-.371c.191-4.72 2.26-8.422 6.372-10.929 1.338-.814 1.356-.793 1.41.746.183 5.222-1.984 9.175-6.448 11.867-1.153.697-1.171.669-1.26-.666a61.82 61.82 0 00-.047-.647zM13.613 78.237H30.41c3.181.002 6.363.003 9.545-.003 1.046-.002 1.659-.53 1.692-1.404.038-.944-.534-1.48-1.65-1.541a5.856 5.856 0 00-.398-.004l-.173.001h-6.4c-6.393 0-12.787 0-19.18.003a5.83 5.83 0 00-1.136.087c-.628.122-.988.533-1.07 1.171-.084.671.166 1.18.764 1.508.342.188.709.185 1.078.182h.131z" fill="#fff"/></svg>