<svg width="102" height="102" fill="none" xmlns="http://www.w3.org/2000/svg"><path d="M101.559 42.93c-.899-2.449-3.197-4.077-5.898-4.086-5.773-.02-11.543-.009-17.317-.006-2.615 0-4.644 1.079-5.805 3.445-1.162 2.367-.79 4.63.877 6.663 1.158 1.412 1.45 3.02.736 4.642-.745 1.684-2.207 2.59-4.057 2.774-1.397.139-1.436.112-1.395-1.303.09-3.262-1.27-5.599-4.302-6.91-.224-.098-.496-.154-.487-.527.03-1.781-.106-3.575.505-5.306 1.274-3.625 4.193-5.65 8.563-5.865 1.513-.074 2.895-.535 3.991-1.534.869-.791 1.729-.774 2.736-.531 1.076.26 1.903.865 2.636 1.663 1.06 1.152 2.278.895 2.836-.567 1.764-4.633-1.382-9.936-6.293-10.572-.437-.056-.715-.215-.996-.526-1.226-1.35-2.736-2.236-4.57-2.319-5.47-.248-10.944-.148-16.413-.053-1.944.032-3.28 1.35-3.65 3.22-.38 1.933.53 3.313 2.149 4.373-1.903 2.071-3.315 4.432-4.456 7.18-1.134-2.748-2.564-5.097-4.429-7.165 1.997-1.551 2.624-3.135 1.995-4.96-.62-1.803-2.154-2.704-4.61-2.707-4.612 0-9.22.012-13.833-.006-2.435-.009-4.568.674-6.19 2.582-.213.248-.449.325-.765.37-4.89.661-7.995 5.492-6.565 10.184.588 1.93 1.814 2.237 3.164.774.845-.916 1.891-1.392 3.1-1.622 1.054-.2 1.719.396 2.452.97 1.492 1.166 3.309 1.181 5.085 1.394 3.607.431 5.962 2.496 7.182 5.856.565 1.548.444 3.2.461 4.822.006.508-.153.73-.63.93-2.153.913-3.503 2.541-4.038 4.822-.204.88-.1 1.785-.118 2.677-.006.331.047.612-.452.697-2.524.435-5.28-1.823-5.351-4.378-.036-1.31.493-2.337 1.27-3.342 2.837-3.664.875-8.846-3.69-9.676-2.293-.42-4.633-.1-6.95-.154-1.302-.03-1.979.547-1.958 1.566.018.987.641 1.483 1.932 1.492 1.79.012 3.584-.003 5.375.009.558.003 1.125-.003 1.66.221 1.956.819 2.494 3.13 1.093 4.876-1.642 2.047-2.254 4.313-1.533 6.866.907 3.227 4.119 5.578 7.72 5.6.783.002.916.227.901.939a191.65 191.65 0 00-.002 6.866c.011.656-.145.89-.822.757-1.123-.222-2.24-.104-3.341.189-1.874.496-3.295 1.607-4.456 3.132-1.031 1.353-2.79 1.61-4.157.69-1.259-.847-1.658-2.655-.869-4.07.272-.491.615-.943.919-1.416.45-.7.443-1.391-.154-1.988-.596-.597-1.282-.609-1.985-.136-.742.5-1.477 1.007-2.237 1.474-1.51.925-3.273.58-4.21-.798-.943-1.385-.559-3.238.895-4.284.511-.366 1.046-.697 1.56-1.057.712-.5.999-1.165.6-1.977-.393-.804-1.084-.996-1.926-.777-1.342.346-2.686.682-4.028 1.016-1.905.473-3.53-.464-3.976-2.284-.376-1.536.726-3.15 2.487-3.604 1.404-.364 2.82-.692 4.223-1.055 1.078-.278 1.645-.957 1.527-1.764-.13-.866-.792-1.338-1.906-1.341-1.725-.006-3.45-.012-5.176.003-.689.006-1.306-.163-1.865-.55-1.001-.694-1.527-1.956-1.273-3.026.32-1.347 1.324-2.357 2.671-2.428 1.885-.1 3.779-.042 5.67-.083 1.072-.024 1.731-.638 1.728-1.525-.003-.886-.682-1.518-1.725-1.53-1.79-.02-3.584-.038-5.375.006-2.647.065-4.824 1.675-5.746 4.157-.074.198.015.49-.278.588v2.588c.685 2.015 1.805 3.652 3.938 4.462-1.929 2.027-2.588 4.367-1.456 6.934 1.161 2.633 3.386 3.74 6.27 3.667-.766 2.352-.429 4.458 1.2 6.249 1.65 1.811 3.757 2.304 6.18 1.793 0 .234-.006.393 0 .556.13 2.526 1.705 4.624 4.09 5.448 2.363.818 5.022.2 6.54-1.811 1.454-1.93 3.242-2.733 5.585-2.411.328.044.883-.257.872.449-.01.547.218 1.075-.636 1.392-2.665.99-4.393 2.925-4.949 5.737-.446 2.258-.153 4.562-.174 6.846-.02 2.16 1.1 3.629 3.067 4.42.455.183.614.352.62.828.006.579-.463.51-.753.59-1.433.382-2.89.677-4.32 1.079-.54.154-.874.106-1.309-.293-1.338-1.226-2.936-1.778-4.753-1.385-.535.115-.698-.157-.907-.511-1.13-1.906-2.237-3.824-3.419-5.697-.37-.588-.458-1.013-.118-1.675.821-1.596.38-3.522-.943-4.707-1.38-1.235-3.309-1.406-4.872-.431-1.527.954-2.245 2.813-1.764 4.58.455 1.669 2.039 2.91 3.83 2.895.59-.006.874.204 1.158.691a162.982 162.982 0 003.37 5.608c.394.62.388 1.031-.05 1.646-1.424 1.988-1.293 4.74.22 6.657 1.5 1.899 4.085 2.641 6.343 1.84.59-.209 1.102-.567 1.731-.721a831.902 831.902 0 0011.328-2.806c1.992-.509 3.094-1.986 3.105-4.06.006-1.096.018-2.19-.005-3.286-.01-.458.109-.656.602-.821 2.033-.685 3.159-2.358 3.173-4.544.006-.996.05-1.995-.014-2.984-.048-.718.248-.848.848-.718.195.041.396.077.59.068.775-.039.908.206.668.978a949.785 949.785 0 00-3.932 13.068c-.647 2.19.153 4.308 1.994 5.442 1.85 1.141 4.063.898 5.762-.65a39.552 39.552 0 001.852-1.805c.299-.31.502-.31.804 0a39.653 39.653 0 002.003 1.935c1.22 1.093 2.662 1.472 4.243 1.082 2.71-.671 4.169-3.277 3.365-5.998-1.185-4.016-2.414-8.016-3.622-12.025-.612-2.03-.609-2 1.542-2.146.632-.04.703.184.689.704a56.445 56.445 0 00-.003 3.084c.04 1.655.55 3.36 2.097 3.886 1.93.656 1.649 1.94 1.643 3.306a93.04 93.04 0 000 1.294c.02 2.228 1.152 3.681 3.31 4.22 2.174.543 4.366 1.033 6.526 1.627 1.521.417 3.155.52 4.553 1.285 3.368 1.841 6.87.73 8.388-2.765.145-.331.254-.497.662-.561 3.637-.6 6-3.183 6.329-6.85.28-3.116-1.826-6.174-5.138-7.303-.872-.296-.568-.883-.609-1.406-.056-.692.488-.459.833-.485 1.01-.083 1.607-.638 1.599-1.519-.01-.871-.63-1.495-1.623-1.495-.605 0-.853-.1-.842-.792.015-1.096-.69-1.823-1.568-1.79-.86.03-1.501.72-1.484 1.776.012.662-.186.818-.824.81-1.01-.013-1.607.59-1.622 1.477-.015.915.544 1.444 1.569 1.536.337.03.883-.236.85.464-.026.567.237 1.164-.676 1.462-3.108 1.014-4.97 3.593-5.094 6.846-.032.833-1.687 2.086-2.514 1.885a167.174 167.174 0 01-4.027-1.016c-.307-.083-.706-.065-.694-.632.011-.523.26-.615.67-.78 1.649-.665 2.748-1.862 2.967-3.661.272-2.21.165-4.435.047-6.651a6.626 6.626 0 00-.558-2.302c-1.008-2.325-2.725-3.894-5.156-4.582-.819-.23-.438-.745-.494-1.161-.074-.518.316-.444.647-.485 2.39-.292 4.255.405 5.794 2.402 2.125 2.757 6.193 2.91 8.731.532 1.356-1.27 1.906-2.896 1.953-4.71 2.408.523 4.482.006 6.125-1.775 1.66-1.803 1.97-3.948 1.22-6.267 2.843.056 5.053-1.129 6.125-3.36 1.286-2.676.671-5.07-1.288-7.218.67-.325 1.303-.661 1.85-1.143 1.882-1.693 2.552-4.27 1.699-6.607zM79.594 30.99a21.97 21.97 0 00.228-2.363c.017-.407.336-.097.505-.006 1.161.63 1.953 1.909 2.234 3.661-.843-.473-1.65-.747-2.482-.963-.184-.05-.544.053-.485-.328zm-57.798.344a8.417 8.417 0 00-2.387.892c-.068-1.51.984-3.058 2.674-3.83.026.834-.027 1.59.198 2.323.136.446-.116.538-.485.615zm-9.969 50.851c-.579-.035-.951-.425-.922-1.07.03-.646.411-.927 1.005-.95.65.044 1.016.39 1.005 1.004-.015.662-.452 1.058-1.088 1.016zM58.57 30.678c.526-.52 1.052-.813 1.823-.763 1.09.071 2.19.03 3.283.015 1.24-.018 1.885-.573 1.855-1.563-.026-.925-.7-1.471-1.855-1.474-2.057-.006-4.113-.015-6.17.006-.676.006-1.238-.14-1.252-.92-.015-.788.55-.939 1.226-.936 2.553.015 5.108.006 7.661.006 2.42 0 4.843-.015 7.263.006 2.505.02 4.34 1.811 4.337 4.193-.003 2.37-1.864 4.169-4.352 4.207-6.373.1-11.461 5.265-11.488 11.653-.003.824.272 1.932-.148 2.396-.487.538-1.616.154-2.464.166-1.69.023-3.383.008-5.073.005-.348 0-.7.104-.73-.499-.33-6.376 1.475-11.948 6.084-16.498zM29.54 33.46c-2.508-.089-4.35-1.796-4.382-4.18-.035-2.415 1.82-4.211 4.394-4.229 2.42-.018 4.843-.003 7.262-.003 2.456 0 4.908.003 7.363-.003.683-.003 1.45-.053 1.46.896.006 1.004-.79.954-1.51.95a781.549 781.549 0 00-5.87-.002c-1.218.003-1.898.564-1.892 1.536.006.964.615 1.48 1.814 1.501 1.061.018 2.128.056 3.182-.012.83-.053 1.425.21 2.01.801 4.009 4.06 6.06 8.905 6.03 14.625-.012 2.332.009 2.332-2.278 2.332-1.725 0-3.451-.039-5.173.017-.757.024-1.029-.156-.979-.957.175-2.76-.21-5.413-1.757-7.788-2.276-3.502-5.51-5.336-9.674-5.484zm6.477 58.51c-.036 3.365.434 2.84-2.863 3.652-3.262.803-6.53 1.598-9.795 2.39-.396.095-.72.31-1.067.505-1.282.724-2.798.352-3.557-.85-.756-1.197-.41-2.79.78-3.582 1.155-.768 2.792-.49 3.581.727.635.981 1.415 1.15 2.464.878 2.329-.609 4.666-1.173 7-1.758 1.27-.32 1.64-.78 1.648-2.083.003-.597.024-1.194-.005-1.79-.033-.671.57-.725.924-1.023.29.355.952.363.904 1.043-.05.63-.014 1.262-.014 1.89zm3.72-6.621c-.024 1.057-.615 1.74-1.478 1.805-.842.062-1.513-.564-1.648-1.61-.116-.89-.621-1.38-1.469-1.484-.771-.094-1.36.503-1.551 1.466-.213 1.073-.845 1.687-1.67 1.628-.868-.062-1.47-.824-1.483-1.906-.011-.86-.003-1.722-.003-2.771.08-1.028-.162-2.26.19-3.463.43-1.483 1.359-2.53 2.75-3.188.461-.219.73-.233 1.005.307 1.049 2.077 2.677 3.584 4.79 4.547.422.192.59.426.578.896-.023 1.255.018 2.514-.011 3.773zm18.25 11.091c.272.884.216 1.649-.609 2.184-.88.573-1.625.239-2.298-.435-.94-.933-1.882-1.867-2.843-2.78-.945-.901-1.634-.904-2.576-.006-.96.913-1.903 1.844-2.842 2.78-.674.671-1.419 1.01-2.299.447-.821-.526-.89-1.294-.618-2.18 1.268-4.158 2.512-8.321 3.768-12.481.038-.124.097-.245.177-.44a5.167 5.167 0 011.335 2.295c.26.91.798 1.554 1.808 1.534.96-.02 1.48-.65 1.723-1.519.236-.845.65-1.575 1.36-2.367l1.284 4.267c.872 2.901 1.738 5.806 2.63 8.701zm.363-17.801c-2.806.047-5.15 1.087-6.946 3.256-.349.422-.487.526-.892.03-1.808-2.21-4.187-3.245-7.032-3.29-4.11-.061-7.254-3.255-7.262-7.37-.012-5.54-.01-11.08 0-16.62.002-2.367 1.539-3.895 3.914-3.9 3.617-.01 7.23-.004 10.847-.004 3.58 0 7.165-.005 10.746.003 2.431.006 3.95 1.528 3.953 3.963.006 5.507.009 11.011 0 16.519-.009 4.174-3.147 7.342-7.328 7.413zm23.333 10.734c.487-1.97 2.585-3.395 4.491-3.132 2.272.316 3.811 2.018 3.823 4.22.01 2.04-1.359 3.76-3.268 4.18-.38.083-.484.026-.626-.328-.753-1.867-2.086-3.085-4.077-3.56-.91-.216-.452-.937-.343-1.38zm-4.852 6.308c.89.218 1.404-.325 1.883-.978.653-.89 1.571-1.17 2.635-.966 1.005.192 1.625.836 1.938 1.781.083.246.098.514.115.603-.011 2.01-1.926 3.422-3.527 2.559-2.207-1.19-4.648-1.424-6.973-2.11-1.832-.54-3.702-.963-5.564-1.397-.661-.154-.966-.514-.966-1.17-.003-1.294.02-2.589-.012-3.88-.017-.656.49-.986.89-.986.466.002.98.34.942 1.034-.035.629 0 1.258-.009 1.89-.011.955.405 1.558 1.362 1.794 2.43.597 4.852 1.23 7.287 1.826zm-8.175-19.988c1.817.63 3.153 2.426 3.212 4.358.026.86.003 1.723.003 2.582h.003c0 .96.02 1.92-.006 2.881-.027.916-.612 1.56-1.415 1.634-.786.074-1.454-.505-1.623-1.403-.21-1.114-.782-1.761-1.595-1.688-.975.09-1.4.727-1.537 1.652-.135.925-.791 1.486-1.583 1.442-.857-.047-1.424-.697-1.454-1.681-.015-.464.036-.93-.012-1.389-.21-2.041-.062-3.779 2.222-4.801 1.235-.553 2.05-1.859 2.627-3.147.278-.623.647-.617 1.158-.44zm30.21-30.285c-.303 1.51-1.47 2.541-2.969 2.565-1.757.027-3.515.006-5.27.009-1.2.003-1.868.455-1.998 1.347-.12.83.479 1.495 1.628 1.788 1.374.345 2.754.67 4.125 1.025 1.76.458 2.863 2.071 2.485 3.605-.45 1.823-2.072 2.753-3.974 2.283-1.312-.325-2.624-.65-3.936-.972-1.025-.254-1.767.024-2.071.816-.346.898.065 1.527.798 2.015.496.328 1.007.638 1.486.99 1.386 1.028 1.74 2.871.827 4.225-.93 1.38-2.694 1.728-4.204.812-.62-.378-1.218-.797-1.823-1.2-1.135-.75-1.755-.791-2.405-.162-.656.632-.609 1.327.16 2.488.327.496.703.97.87 1.548.43 1.49-.173 2.981-1.465 3.646-1.35.697-2.907.349-3.879-.945-1.45-1.93-3.345-3.05-5.744-3.33-.735-.086-1.456-.018-2.18.085-.458.066-.644-.035-.638-.552a368.51 368.51 0 000-7.36c-.006-.538.168-.656.68-.65a8.248 8.248 0 004.351-1.15c4.193-2.458 5.13-7.424 2.122-11.236-1.445-1.831-.984-4.112.998-4.957.568-.243 1.164-.23 1.758-.23 2.787-.01 5.57-.004 8.356-.004 2.75 0 5.504-.003 8.255.003.63 0 1.256.012 1.85.287 1.261.585 2.056 1.976 1.808 3.211zM39.701 20.065c7.496.006 14.995.006 22.49 0 1.082 0 1.773-.544 1.868-1.4.088-.793-.42-1.413-1.49-1.658-.416-.095-.481-.195-.327-.562.1-.239.124-.51.189-.768.493-1.909.827-3.817.168-5.761-1.108-3.262-4.021-5.316-7.575-5.333-.795-.003-1.826.28-2.32-.11-.579-.458-.2-1.542-.186-2.349.015-.898-.254-1.595-.972-2.124h-1.194c-.72.529-1.028 1.226-.96 2.124.044.594-.02 1.197.018 1.79.032.503-.098.71-.647.68-.795-.044-1.593-.02-2.387-.006-3.747.083-7.012 3.159-7.405 6.876-.183 1.734.334 3.341.695 4.978.085.381.073.467-.337.562-1.073.248-1.581.865-1.492 1.657.094.863.783 1.404 1.864 1.404zm15.618-5.014c.313-2.184.688-4.361 1.008-6.545.097-.664.357-.694.91-.434 1.923.904 3.066 3.15 2.611 5.268-.192.901-.517 1.779-.632 2.686-.106.833-.496 1.049-1.244.951-.325-.041-.659-.006-.99-.006-1.917 0-1.94-.003-1.663-1.92zm-6.17-7.467c.592.057 1.191.012 1.94.012.64.14 1.742-.405 2.156.23.322.5-.127 1.508-.251 2.288-.331 2.086-.721 4.163-.981 6.255-.104.839-.624.6-1.052.59-.417-.008-.948.281-1.07-.57-.384-2.71-.871-5.404-1.323-8.104-.083-.47-.018-.757.582-.7zm-6.972 3.333c.455-1.315 1.306-2.26 2.55-2.878.546-.271.75-.12.839.45.387 2.505.78 5.013 1.205 7.513.124.733 0 1.114-.845.981-.354-.056-.727-.009-1.09-.009-1.897 0-1.906.003-2.367-1.882-.336-1.374-.788-2.742-.292-4.175z" fill="#4d6fb7"/><path d="M63.71 70.275c-.053-.916-.635-1.55-1.445-1.58-.85-.03-1.51.635-1.557 1.577-.012.23 0 .464-.003.698-.009 1.71-.91 2.65-2.597 2.697-2.316.062-4.514.58-6.538 1.734-.411.234-.733.296-1.18.036-2.044-1.185-4.275-1.71-6.626-1.773-1.66-.041-2.565-.96-2.568-2.612-.006-4.842.009-9.685-.018-14.525-.003-.629.133-.83.804-.824 5.968.03 11.94.033 17.908-.003.747-.003.842.251.833.901-.038 2.42-.018 4.843-.015 7.263.003 1.217.562 1.897 1.537 1.882.951-.015 1.468-.635 1.471-1.829.009-2.984.006-5.968.003-8.955-.003-1.767-.538-2.305-2.32-2.308-3.447-.006-6.898-.003-10.346-.003-3.581 0-7.162-.009-10.746.006-1.454.006-2.11.594-2.113 1.906-.012 5.67 0 11.342.006 17.012.003 1.478.623 2.674 1.675 3.682 1.206 1.152 2.707 1.456 4.293 1.507a10.16 10.16 0 015.65 1.885c.785.552 1.495.54 2.278 0a10.41 10.41 0 015.646-1.891c.659-.027 1.332-.077 1.965-.245 2.792-.757 4.19-2.958 4.003-6.238zm7.682-40.383c.851.059 1.714.056 2.568.003.839-.05 1.433-.706 1.441-1.469.01-.789-.647-1.465-1.512-1.533-.393-.03-.792-.006-1.185-.006v.003c-.428 0-.86-.033-1.285.006-.834.08-1.398.706-1.404 1.5-.009.846.49 1.437 1.377 1.496zm-39.441-2.987a17.73 17.73 0 00-2.567.005c-.837.063-1.368.724-1.342 1.543.027.85.488 1.341 1.32 1.439.423.047.855.009 1.283.009v.017c.429 0 .86.03 1.285-.006.887-.076 1.543-.744 1.475-1.533-.077-.866-.588-1.412-1.454-1.474z" fill="#4d6fb7"/></svg>