<svg width="69" height="95" fill="none" xmlns="http://www.w3.org/2000/svg"><path d="M38.285 94.994H12.812c-1.744 0-2.282-.697-1.86-2.399.443-1.781.88-3.565 1.338-5.343.302-1.158.685-1.437 1.88-1.437 6.2-.003 12.402-.014 18.602.017.727.003.947-.153.935-.918-.045-3.503-.04-7.008-.002-10.514.005-.66-.141-.907-.826-.833-.597.065-1.205.014-1.811.014-1.302-.003-1.64-.24-2.065-1.499-.456-1.35-.946-2.687-1.327-4.059-.135-.488-.383-.632-.791-.765C15.09 63.363 6.688 55.676 2.515 43.99-2.497 29.94.04 16.985 9.618 5.496c.465-.556.535-.855-.04-1.32-.515-.418-.965-.924-1.422-1.41-.73-.775-.755-1.617-.096-2.28.66-.663 1.522-.66 2.274.088a527.792 527.792 0 016.873 6.901c.45.463.687.486 1.189.057 6.279-5.364 13.591-7.83 21.788-7.32 14.488.906 25.609 11.542 28.04 24.69 1.786 9.649-.55 18.258-6.806 25.792-.375.452-.397.689.042 1.12 2.319 2.273 4.597 4.588 6.896 6.88.634.632.879 1.324.375 2.134-.524.841-1.603.957-2.389.24a30.226 30.226 0 01-1.75-1.759c-.31-.333-.515-.38-.892-.04a37.055 37.055 0 01-14.107 8.006c-.383.119-.592.271-.721.72-.423 1.46-.964 2.882-1.428 4.327-.282.875-.823 1.31-1.755 1.267-.634-.028-1.28.06-1.907-.02-.843-.11-.964.243-.953.997.043 3.376.051 6.755-.002 10.131-.014.878.138 1.16 1.098 1.152 6.104-.054 12.211-.029 18.319-.026 1.357 0 1.718.268 2.061 1.59.47 1.809.927 3.618 1.37 5.433C66 94.181 65.337 95 63.943 95c-8.552-.006-17.107-.006-25.66-.006zm.138-29.065c2.205-.051 4.64-.257 7.036-.765 6.014-1.273 11.324-3.952 15.967-7.992.501-.434.425-.657-.006-1.05a27.082 27.082 0 01-2.085-2.097c-.425-.483-.678-.491-1.188-.068-7.792 6.478-16.67 8.754-26.572 6.617-16.994-3.67-27.448-21.233-22.73-38.02 1.231-4.378 3.276-8.304 6.257-11.728.445-.511.411-.77-.068-1.191-.67-.585-1.338-1.197-1.882-1.894-.622-.802-.969-.574-1.512.087-7.583 9.225-10.211 19.697-7.397 31.296 3.839 15.838 17.735 26.666 34.18 26.805zm-.206 26.003c7.279 0 14.56.002 21.84-.006.69 0 1.65.308 2.002-.13.364-.449-.27-1.29-.326-1.984-.062-.793-.468-.963-1.237-.96-14.4.028-28.803.02-43.203.023-.726 0-1.656-.232-2.127.127-.453.344-.377 1.335-.633 2.001-.296.77-.107.946.701.943 7.662-.026 15.321-.014 22.983-.014zm26.896-66.91c-.023-.077-.037-.108-.042-.139-.98-4.561-3.009-8.598-6.037-12.14-.301-.35-.453-.153-.662.056-2.428 2.433-4.85 4.872-7.29 7.294-.321.319-.307.505 0 .824 1.898 1.976 3.597 4.121 5.146 6.38.251.366.44.4.84.228 2.425-1.033 4.93-1.798 7.55-2.148.23-.031.534-.011.495-.356zm-29.91 24.21c.05-.3-.214-.361-.38-.48-2.262-1.589-4.428-3.3-6.417-5.222-.324-.313-.487-.223-.747.04a1560.293 1560.293 0 01-7.273 7.282c-.31.308-.355.466.026.788 3.467 2.944 7.397 4.934 11.836 5.925.462.104.617.03.676-.435.333-2.622 1.107-5.123 2.118-7.556.051-.116.108-.23.161-.342zm8.825-45.364c-.256 0-.326.062-.394.567a27.368 27.368 0 01-2.135 7.46c-.242.543.005.712.366.96 2.17 1.508 4.231 3.148 6.132 4.982.358.348.572.421.967.02a633.788 633.788 0 017.143-7.161c.412-.407.33-.593-.07-.929-2.524-2.125-5.321-3.76-8.428-4.875a26.647 26.647 0 00-3.58-1.024zM19.876 33.825c-.07.034-.155.077-.24.113-2.486 1.045-5.041 1.85-7.729 2.19-.473.06-.49.275-.391.706.989 4.421 2.975 8.336 5.89 11.791.299.356.465.384.797.048 2.414-2.444 4.842-4.872 7.276-7.297.265-.265.341-.426.034-.748-1.913-2.001-3.631-4.169-5.214-6.441-.107-.144-.16-.364-.423-.361zm.226-23.462c3.676 3.675 7.32 7.31 10.949 10.966.386.39.558.175.811-.11a40.86 40.86 0 005.102-7.105c.25-.437.194-.63-.234-.87-3.45-1.933-7.04-3.474-11.017-3.875-1.916-.192-3.797.006-5.611.994zm-2.144 2.134c-.758 1.344-1.042 2.676-1.053 4.05-.037 4.666 1.768 8.762 3.957 12.742.262.475.493.32.82.133a41.481 41.481 0 007.031-5.036c.45-.398.448-.601.022-1.022-3.008-2.975-5.988-5.978-8.974-8.976-.603-.604-1.178-1.23-1.803-1.891zm40.656 36.439c.724-1.29 1.012-2.623 1.023-4 .036-4.669-1.77-8.77-3.966-12.748-.237-.429-.448-.29-.755-.118-2.56 1.43-4.91 3.156-7.113 5.092-.434.381-.366.584.003.954 3.586 3.57 7.155 7.159 10.808 10.82zm-2.169 2.199c-3.681-3.681-7.31-7.3-10.915-10.939-.442-.448-.62-.15-.879.142-1.913 2.142-3.563 4.468-5.006 6.952-.284.491-.256.734.262 1.019 2.955 1.623 6.014 2.984 9.347 3.596 2.408.44 4.8.466 7.191-.77zM48.493 22.69c-2.54 2.549-5.048 5.072-7.572 7.584-.315.314-.464.506-.056.898a154.133 154.133 0 013.842 3.842c.307.316.49.361.837.037 2.468-2.307 5.203-4.246 8.18-5.914a49.462 49.462 0 00-5.23-6.447zM30.231 40.987c1.902 1.857 3.938 3.472 6.048 4.999.285.206.434.209.62-.13a40.175 40.175 0 015.681-7.842c.271-.293.305-.471 0-.767a204.418 204.418 0 01-3.904-3.916c-.332-.341-.515-.296-.828.02-2.521 2.546-5.059 5.076-7.617 7.636zm9.665-25.713c-1.67 2.987-3.608 5.73-5.91 8.209-.256.277-.346.452-.022.765 1.32 1.287 2.62 2.6 3.912 3.915.27.277.445.35.76.031 2.438-2.467 4.888-4.923 7.347-7.367.26-.257.288-.387.003-.652-1.907-1.776-3.918-3.422-6.09-4.9zM28.048 38.8c2.55-2.56 5.06-5.09 7.589-7.599.35-.347.394-.542.014-.9-.972-.918-1.896-1.883-2.842-2.829-1.338-1.34-1.347-1.349-2.752-.14-2.234 1.919-4.643 3.584-7.231 5.052 1.6 2.31 3.301 4.435 5.222 6.416zM13.806 18.23c-2.228 4.644-3.203 9.234-2.94 14.086.036.678.284.856.92.731 2.017-.4 3.995-.92 5.91-1.688.521-.209.586-.378.31-.863-2.13-3.743-3.696-7.69-4.2-12.265zM25.882 6.223c.803.127 1.453.209 2.096.333 3.574.683 6.876 2.08 10.022 3.873.434.248.651.302.876-.271.755-1.923 1.288-3.901 1.685-5.922.118-.602.017-.887-.696-.94-1.977-.15-3.932.011-5.876.305a25.903 25.903 0 00-8.107 2.622zm24.882 49.025c-4.775-.505-8.857-2.252-12.797-4.48-.995 2.157-1.558 4.39-1.995 6.665-.127.66.217.725.718.757 4.851.288 9.437-.7 14.074-2.942zm11.969-11.996c2.242-4.658 3.239-9.304 2.912-14.227-.033-.488-.188-.669-.684-.582-2.158.373-4.254.96-6.282 1.785-.31.124-.425.237-.217.61 2.135 3.801 3.77 7.784 4.27 12.414zM36.743 79.6v3.918c0 2.323 0 2.3 2.288 2.315.623.003.786-.158.78-.782-.033-3.057-.014-6.114-.014-9.174 0-2.357 0-2.34-2.383-2.312-.538.006-.693.144-.681.686.034 1.781.01 3.565.01 5.35zm-5.41-10.582c.346 1.501.346 1.501 1.687 1.501h10.473c1.426 0 1.426 0 1.69-1.501h-13.85z" fill="#4d6fb7"/></svg>